<svg id="svg" version="1.1" xmlns="http://www.w3.org/2000/svg" xmlns:xlink="http://www.w3.org/1999/xlink" width="400" height="400" viewBox="0, 0, 400,400"><g id="svgg"><path id="path0" d="M194.800 89.741 C 187.419 91.739,176.364 101.415,171.382 110.239 C 170.072 112.559,167.546 116.289,165.770 118.528 C 163.993 120.768,161.676 124.040,160.621 125.800 C 159.565 127.560,157.855 130.080,156.819 131.400 C 155.783 132.720,154.333 134.700,153.597 135.800 C 152.860 136.900,149.972 140.950,147.178 144.800 C 142.201 151.659,137.319 158.612,130.748 168.200 C 128.938 170.840,125.349 175.700,122.771 179.000 C 120.194 182.300,117.197 186.440,116.111 188.200 C 115.025 189.960,113.113 192.750,111.863 194.400 C 105.985 202.155,106.239 209.784,112.623 217.200 C 113.853 218.630,115.821 221.150,116.995 222.800 C 118.169 224.450,120.773 227.870,122.782 230.400 C 124.791 232.930,127.920 237.160,129.736 239.800 C 131.552 242.440,133.944 245.860,135.051 247.400 C 136.158 248.940,138.950 252.900,141.255 256.200 C 146.228 263.319,153.043 272.871,156.511 277.582 C 157.880 279.442,159.850 282.345,160.890 284.032 C 161.929 285.719,164.125 288.787,165.769 290.850 C 167.414 292.912,170.148 297.030,171.845 300.000 C 183.271 319.999,192.236 326.363,202.108 321.484 C 207.772 318.685,215.619 310.819,218.209 305.344 C 218.790 304.116,220.735 300.895,222.532 298.184 C 224.330 295.473,226.658 291.848,227.707 290.128 C 228.756 288.407,231.096 284.881,232.907 282.290 C 234.718 279.700,238.090 274.677,240.400 271.129 C 242.710 267.580,245.697 263.213,247.037 261.425 C 248.378 259.636,251.662 254.938,254.335 250.986 C 261.254 240.759,264.537 236.356,268.265 232.309 C 270.451 229.935,272.087 227.680,273.217 225.482 C 274.145 223.677,276.393 219.950,278.212 217.200 C 286.337 204.915,286.337 204.497,278.225 192.200 C 276.629 189.780,274.530 186.290,273.561 184.444 C 272.434 182.295,270.615 179.776,268.506 177.444 C 264.628 173.154,261.547 169.006,254.359 158.400 C 251.452 154.110,248.217 149.514,247.171 148.186 C 246.124 146.859,244.398 144.408,243.334 142.739 C 239.477 136.690,236.516 132.251,232.225 126.086 C 229.819 122.629,226.967 118.270,225.888 116.400 C 224.809 114.530,222.802 111.470,221.429 109.600 C 220.056 107.730,218.502 105.480,217.977 104.600 C 216.687 102.439,208.790 94.161,206.247 92.305 C 202.646 89.676,198.486 88.744,194.800 89.741 M199.700 152.080 C 202.133 154.870,204.893 158.606,209.393 165.200 C 211.721 168.610,215.769 174.370,218.390 178.000 C 221.012 181.630,224.003 186.103,225.038 187.941 C 226.073 189.778,228.154 192.838,229.664 194.741 C 236.266 203.063,236.271 206.215,229.693 214.566 C 228.171 216.500,225.987 219.729,224.841 221.741 C 223.694 223.753,220.792 228.100,218.391 231.400 C 215.990 234.700,212.283 240.010,210.154 243.200 C 208.024 246.390,205.529 249.900,204.609 251.000 C 203.689 252.100,202.150 254.139,201.189 255.531 C 196.487 262.339,193.958 260.900,183.399 245.409 C 180.696 241.444,177.201 236.609,175.631 234.664 C 174.061 232.719,172.347 230.280,171.822 229.243 C 171.297 228.207,170.031 226.288,169.010 224.980 C 167.988 223.671,165.962 220.800,164.507 218.600 C 163.052 216.400,160.990 213.460,159.924 212.068 C 155.272 205.986,155.350 202.987,160.329 196.664 C 161.395 195.309,163.131 192.850,164.185 191.200 C 165.240 189.550,166.957 187.120,168.002 185.800 C 169.047 184.480,170.742 181.977,171.768 180.238 C 172.794 178.499,174.765 175.709,176.148 174.038 C 177.531 172.367,180.980 167.580,183.814 163.400 C 192.998 149.853,195.933 147.762,199.700 152.080 " stroke="none" fill="#0c0c0c" fill-rule="evenodd"></path></g></svg>