<svg id="svg" version="1.1" xmlns="http://www.w3.org/2000/svg" xmlns:xlink="http://www.w3.org/1999/xlink" width="400" height="400" viewBox="0, 0, 400,400"><g id="svgg"><path id="path0" d="M180.474 48.457 C 174.115 49.485,168.131 55.184,166.789 61.491 C 166.566 62.541,166.219 70.510,166.019 79.200 C 165.745 91.128,165.452 96.566,164.826 101.390 C 164.370 104.905,163.631 112.825,163.184 118.990 C 162.312 131.039,162.066 133.031,160.613 139.800 C 160.094 142.220,159.278 146.393,158.800 149.074 C 157.939 153.905,155.312 162.139,148.512 181.323 C 144.475 192.709,140.304 198.968,129.934 209.200 C 122.385 216.649,112.693 227.595,108.685 233.200 C 107.348 235.070,105.341 237.756,104.227 239.169 C 103.112 240.582,100.850 243.571,99.200 245.813 C 92.240 255.266,87.575 261.293,83.644 265.908 C 81.344 268.608,79.026 271.458,78.493 272.243 C 71.598 282.391,75.348 294.142,86.703 297.967 C 92.552 299.938,95.907 298.997,108.200 291.942 C 118.739 285.892,121.968 284.258,131.400 280.200 C 135.360 278.496,143.190 274.906,148.800 272.221 C 167.245 263.394,180.336 259.128,198.600 255.992 C 201.240 255.539,206.517 254.538,210.326 253.769 L 217.252 252.369 225.726 252.971 C 234.564 253.599,235.496 253.774,244.070 256.407 C 252.131 258.881,265.490 261.507,275.600 262.603 C 278.790 262.948,284.640 263.667,288.600 264.200 C 292.560 264.734,297.780 265.365,300.200 265.604 C 302.620 265.843,307.570 266.563,311.200 267.204 C 324.526 269.556,328.887 269.586,333.289 267.355 C 341.882 263.000,344.552 252.057,339.112 243.484 C 337.207 240.482,335.502 239.294,321.200 231.000 C 314.439 227.079,311.070 224.836,305.000 220.214 C 299.940 216.361,294.932 212.836,288.023 208.263 C 281.224 203.763,274.878 198.928,270.400 194.836 C 268.090 192.725,265.142 190.099,263.850 188.999 C 260.840 186.439,250.546 175.157,245.785 169.200 C 243.762 166.670,240.897 163.250,239.416 161.600 C 235.739 157.502,229.661 145.341,228.167 139.096 C 224.102 122.095,221.914 116.021,208.600 84.800 C 206.677 80.290,203.682 72.832,201.945 68.226 C 196.682 54.275,192.819 49.524,185.975 48.592 C 184.999 48.459,183.840 48.297,183.400 48.232 C 182.960 48.167,181.643 48.268,180.474 48.457 M197.421 149.938 C 198.231 152.062,199.800 155.960,200.907 158.600 C 203.385 164.512,203.534 166.233,201.800 168.923 C 194.294 180.569,192.152 182.501,187.449 181.870 C 183.833 181.386,183.395 178.960,185.725 172.326 C 188.053 165.695,189.540 160.243,190.411 155.134 C 192.343 143.812,194.478 142.229,197.421 149.938 M227.487 197.500 C 228.179 198.105,230.481 200.670,232.604 203.200 C 236.903 208.323,238.475 209.864,244.016 214.388 C 253.096 221.800,253.563 224.717,245.400 223.016 C 243.860 222.695,240.350 222.153,237.600 221.810 C 227.517 220.555,227.796 220.748,223.555 212.083 C 220.780 206.413,220.286 205.101,220.290 203.402 C 220.303 197.786,224.180 194.606,227.487 197.500 M178.420 214.422 C 186.598 215.063,189.070 216.216,190.848 220.220 C 192.413 223.747,191.581 224.272,180.470 226.766 C 175.632 227.853,168.777 229.732,165.152 230.966 C 153.212 235.032,151.929 233.872,159.215 225.600 C 160.474 224.170,162.704 221.380,164.170 219.400 C 168.296 213.826,168.758 213.664,178.420 214.422 " stroke="none" fill="#080808" fill-rule="evenodd"></path></g></svg>