<svg id="svg" version="1.1" xmlns="http://www.w3.org/2000/svg" xmlns:xlink="http://www.w3.org/1999/xlink" width="400" height="400" viewBox="0, 0, 400,400"><g id="svgg"><path id="path0" d="M304.299 92.175 C 302.170 92.917,298.608 93.812,296.384 94.164 C 291.902 94.874,291.652 94.975,288.359 97.399 C 286.680 98.635,285.141 99.340,282.725 99.982 C 278.112 101.207,276.853 102.138,274.460 106.101 C 273.349 107.939,270.947 111.067,269.121 113.053 C 267.294 115.039,263.708 119.530,261.152 123.033 C 258.596 126.537,254.958 131.245,253.068 133.496 C 251.178 135.747,248.745 138.896,247.662 140.494 C 246.578 142.092,244.098 144.930,242.149 146.800 C 240.201 148.670,237.263 151.640,235.619 153.400 C 226.128 163.561,221.289 166.376,209.800 168.416 C 207.160 168.885,203.200 169.703,201.000 170.233 C 198.527 170.830,194.637 171.356,190.810 171.613 C 187.405 171.840,183.355 172.300,181.810 172.635 C 180.264 172.969,176.768 173.681,174.039 174.217 C 167.990 175.405,159.183 178.216,153.802 180.676 C 151.603 181.681,147.910 183.104,145.596 183.837 C 142.467 184.827,140.157 185.925,136.593 188.113 C 133.957 189.733,129.846 192.215,127.458 193.629 C 124.744 195.236,121.732 197.475,119.425 199.600 C 117.395 201.470,113.703 204.800,111.220 207.000 C 108.737 209.200,105.245 212.710,103.460 214.800 C 101.675 216.890,99.215 219.680,97.993 221.000 C 96.771 222.320,94.798 225.020,93.608 227.000 C 92.419 228.980,90.076 232.403,88.402 234.606 C 86.729 236.810,84.569 240.050,83.603 241.806 C 82.637 243.563,81.283 245.900,80.593 247.000 C 79.904 248.100,77.661 252.240,75.611 256.200 C 73.560 260.160,70.853 265.020,69.596 267.000 C 66.704 271.555,64.673 275.584,63.177 279.737 C 62.531 281.532,61.096 284.800,59.990 287.000 C 55.505 295.918,57.535 300.807,66.359 302.337 C 69.413 302.867,71.610 303.945,73.868 306.023 C 74.786 306.867,76.856 308.215,78.468 309.017 C 80.202 309.881,82.326 311.382,83.668 312.694 C 86.730 315.688,88.078 315.834,94.224 313.843 C 96.795 313.009,100.145 312.253,102.224 312.036 C 113.221 310.890,121.346 304.448,130.122 289.918 C 132.192 286.492,134.766 282.574,135.842 281.211 C 140.148 275.761,141.573 273.485,142.587 270.439 C 143.156 268.731,144.529 265.909,145.639 264.167 C 146.749 262.425,148.298 259.740,149.082 258.200 C 151.028 254.372,152.506 252.287,155.602 249.000 C 157.510 246.974,158.759 245.136,160.120 242.350 C 163.705 235.014,176.643 224.922,185.401 222.631 C 196.486 219.730,203.120 218.403,208.406 218.027 C 211.500 217.808,214.193 217.528,214.391 217.406 C 214.589 217.283,218.137 216.654,222.275 216.006 C 236.624 213.762,248.311 210.543,253.400 207.433 C 254.940 206.492,258.900 204.319,262.200 202.605 C 272.794 197.101,284.203 189.164,289.200 183.821 C 290.630 182.292,292.790 180.049,294.000 178.837 C 303.245 169.571,309.537 162.571,312.479 158.282 C 314.259 155.687,316.095 153.300,316.558 152.976 C 319.719 150.767,322.062 147.750,324.581 142.642 C 326.616 138.515,327.777 136.719,330.039 134.200 C 339.498 123.666,341.826 114.662,337.506 105.318 C 335.516 101.012,328.701 97.110,318.778 94.594 C 316.534 94.026,313.686 93.055,312.449 92.438 C 308.969 90.701,308.571 90.688,304.299 92.175 " stroke="none" fill="#121212" fill-rule="evenodd"></path></g></svg>