<svg id="svg" version="1.1" xmlns="http://www.w3.org/2000/svg" xmlns:xlink="http://www.w3.org/1999/xlink" width="400" height="400" viewBox="0, 0, 400,400"><g id="svgg"><path id="path0" d="M187.400 114.015 C 114.276 118.101,63.089 161.476,72.372 211.488 C 78.476 244.370,114.756 274.126,158.600 282.207 C 160.580 282.572,164.450 283.304,167.200 283.834 C 183.151 286.909,214.961 287.065,230.800 284.148 C 233.770 283.601,238.212 282.802,240.670 282.374 C 250.643 280.636,265.128 275.651,276.600 270.009 C 332.289 242.621,345.406 189.785,306.313 150.315 C 291.789 135.651,262.327 121.089,239.800 117.440 C 237.820 117.119,233.770 116.407,230.800 115.858 C 221.629 114.161,200.690 113.272,187.400 114.015 M209.906 162.202 C 245.961 164.659,276.465 180.054,279.645 197.400 C 282.577 213.396,257.620 230.577,223.000 236.394 C 169.035 245.461,108.901 219.096,122.171 192.186 C 129.820 176.675,158.661 164.151,191.600 162.036 C 199.248 161.545,200.408 161.555,209.906 162.202 " stroke="none" fill="#070707" fill-rule="evenodd"></path></g></svg>