<svg id="svg" version="1.1" xmlns="http://www.w3.org/2000/svg" xmlns:xlink="http://www.w3.org/1999/xlink" width="400" height="400" viewBox="0, 0, 400,400"><g id="svgg"><path id="path0" d="M194.060 89.374 C 187.762 91.420,183.234 94.620,178.236 100.555 C 176.897 102.147,174.808 103.839,171.662 105.881 C 164.453 110.561,160.586 114.920,157.266 122.105 C 155.524 125.875,149.869 134.107,146.527 137.736 C 144.214 140.247,141.803 143.699,138.408 149.362 C 137.233 151.321,134.656 155.090,132.681 157.737 C 130.707 160.385,128.276 163.893,127.280 165.534 C 126.284 167.174,124.262 169.859,122.786 171.500 C 121.311 173.140,119.237 175.949,118.179 177.741 C 117.120 179.534,115.233 182.260,113.986 183.800 C 112.739 185.340,110.905 187.860,109.912 189.400 C 108.919 190.940,107.106 193.446,105.883 194.969 C 104.661 196.492,102.665 199.552,101.447 201.769 C 100.229 203.986,97.445 208.028,95.259 210.752 C 93.074 213.475,90.682 216.756,89.943 218.041 C 89.204 219.327,88.001 221.436,87.269 222.727 C 86.537 224.018,84.489 226.678,82.719 228.637 C 80.948 230.597,78.767 233.276,77.873 234.591 C 76.978 235.906,74.953 238.365,73.373 240.055 C 70.252 243.392,65.837 250.178,63.225 255.650 C 62.152 257.900,60.669 260.126,58.961 262.050 C 51.878 270.031,52.239 271.271,65.991 286.200 C 68.017 288.400,71.352 292.720,73.401 295.800 C 79.031 304.261,87.541 313.591,90.415 314.452 C 93.328 315.325,94.660 314.719,98.272 310.879 C 100.072 308.965,101.782 307.168,102.072 306.884 C 102.362 306.600,104.492 304.530,106.804 302.284 C 110.165 299.019,111.386 297.507,112.897 294.744 C 113.936 292.843,115.610 290.233,116.615 288.944 C 117.621 287.655,119.427 285.113,120.628 283.295 C 121.829 281.477,124.391 277.872,126.322 275.283 C 128.253 272.693,130.512 269.361,131.342 267.877 C 132.172 266.394,134.180 263.758,135.806 262.020 C 137.827 259.858,139.289 257.807,140.431 255.530 C 142.954 250.499,145.175 247.272,148.675 243.557 C 151.884 240.150,151.856 240.199,155.041 232.459 C 155.345 231.722,157.452 229.202,159.724 226.859 C 164.286 222.156,166.012 219.928,169.178 214.656 C 170.349 212.708,172.424 209.648,173.790 207.856 C 175.156 206.065,177.138 203.070,178.196 201.200 C 180.841 196.525,182.943 193.889,187.333 189.744 C 189.398 187.795,191.936 185.074,192.974 183.698 C 197.001 178.357,201.132 180.182,204.977 189.000 C 207.012 193.669,208.408 195.734,212.818 200.600 C 216.498 204.661,220.252 209.984,223.712 216.049 C 224.763 217.892,226.971 220.930,228.617 222.799 C 230.264 224.669,232.796 228.207,234.245 230.662 C 235.694 233.116,238.122 236.517,239.641 238.218 C 242.974 241.950,243.578 242.900,245.165 246.904 C 246.765 250.941,247.701 252.390,252.591 258.400 C 259.102 266.403,262.737 271.491,264.619 275.238 C 266.218 278.422,268.665 282.462,272.230 287.800 C 272.964 288.900,274.482 290.880,275.602 292.200 C 276.723 293.520,278.744 296.220,280.092 298.200 C 281.441 300.180,284.548 304.500,286.996 307.800 C 289.445 311.100,292.365 315.161,293.486 316.825 C 298.121 323.707,301.853 324.673,310.600 321.257 C 316.877 318.805,319.286 315.894,321.998 307.484 C 323.674 302.285,325.345 298.906,328.971 293.385 C 330.566 290.957,332.641 287.537,333.584 285.785 C 334.526 284.033,335.795 281.790,336.403 280.800 C 338.665 277.117,338.865 274.485,337.141 271.063 C 334.628 266.074,329.906 258.843,326.485 254.746 C 324.348 252.186,321.702 248.586,320.605 246.746 C 318.504 243.220,313.706 235.837,309.593 229.800 C 308.244 227.820,306.096 224.580,304.820 222.600 C 303.544 220.620,301.173 217.526,299.550 215.724 C 297.707 213.678,295.785 210.951,294.428 208.456 C 293.233 206.260,290.976 202.834,289.412 200.842 C 287.848 198.850,285.585 195.478,284.384 193.349 C 282.923 190.760,281.070 188.273,278.788 185.839 C 275.504 182.338,274.216 180.486,271.073 174.756 C 270.276 173.301,268.656 170.871,267.475 169.356 C 266.293 167.840,264.403 164.800,263.275 162.600 C 262.147 160.400,260.086 157.160,258.697 155.400 C 257.307 153.640,255.285 150.940,254.203 149.400 C 253.121 147.860,251.130 145.160,249.780 143.400 C 247.028 139.814,244.774 136.053,242.709 131.600 C 241.136 128.210,239.041 125.298,234.709 120.486 C 233.069 118.663,230.947 115.783,229.995 114.086 C 227.727 110.043,226.348 108.606,223.200 107.002 C 220.200 105.472,218.969 104.257,217.356 101.232 C 215.223 97.233,210.264 92.788,204.800 89.978 C 202.539 88.815,196.777 88.491,194.060 89.374 " stroke="none" fill="#0d0d0d" fill-rule="evenodd"></path></g></svg>