{
	"asset":{
		"generator":"Khronos glTF Blender I/O v4.0.44",
		"version":"2.0"
	},
	"scene":0,
	"scenes":[
		{
			"name":"Scene",
			"nodes":[
				0
			]
		}
	],
	"nodes":[
		{
			"mesh":0,
			"name":"bush2",
			"rotation":[
				0.03368889540433884,
				-0.8190012574195862,
				-0.5335878133773804,
				0.20829322934150696
			],
			"scale":[
				0.45097246766090393,
				0.41586533188819885,
				0.45097243785858154
			]
		}
	],
	"materials":[
		{
			"doubleSided":true,
			"name":"Tree.green.base",
			"pbrMetallicRoughness":{
				"baseColorFactor":[
					0.028066866099834442,
					0.2765229046344757,
					0.03298337757587433,
					1
				],
				"metallicFactor":0,
				"roughnessFactor":0.625984251499176
			}
		}
	],
	"meshes":[
		{
			"name":"Cylinder.005",
			"primitives":[
				{
					"attributes":{
						"POSITION":0,
						"NORMAL":1,
						"TEXCOORD_0":2
					},
					"indices":3,
					"material":0
				}
			]
		}
	],
	"accessors":[
		{
			"bufferView":0,
			"componentType":5126,
			"count":3840,
			"max":[
				1.0444331169128418,
				1.801419734954834,
				2.7914798259735107
			],
			"min":[
				-1.507832407951355,
				-1.4714347124099731,
				-0.7823855876922607
			],
			"type":"VEC3"
		},
		{
			"bufferView":1,
			"componentType":5126,
			"count":3840,
			"type":"VEC3"
		},
		{
			"bufferView":2,
			"componentType":5126,
			"count":3840,
			"type":"VEC2"
		},
		{
			"bufferView":3,
			"componentType":5123,
			"count":3840,
			"type":"SCALAR"
		}
	],
	"bufferViews":[
		{
			"buffer":0,
			"byteLength":46080,
			"byteOffset":0,
			"target":34962
		},
		{
			"buffer":0,
			"byteLength":46080,
			"byteOffset":46080,
			"target":34962
		},
		{
			"buffer":0,
			"byteLength":30720,
			"byteOffset":92160,
			"target":34962
		},
		{
			"buffer":0,
			"byteLength":7680,
			"byteOffset":122880,
			"target":34963
		}
	],
	"buffers":[
		{
			"byteLength":130560,
			"uri":"bush.02.bin"
		}
	]
}
