{
	"asset":{
		"generator":"Khronos glTF Blender I/O v4.0.44",
		"version":"2.0"
	},
	"scene":0,
	"scenes":[
		{
			"name":"Scene",
			"nodes":[
				0
			]
		}
	],
	"nodes":[
		{
			"mesh":0,
			"name":"bush1",
			"rotation":[
				-0.41245537996292114,
				0.7119163870811462,
				0.3401932716369629,
				0.45532867312431335
			],
			"scale":[
				0.45097246766090393,
				0.41586533188819885,
				0.45097243785858154
			]
		}
	],
	"materials":[
		{
			"doubleSided":true,
			"name":"Bush.green.base",
			"pbrMetallicRoughness":{
				"baseColorFactor":[
					0.18992045521736145,
					0.36276620626449585,
					0,
					1
				],
				"metallicFactor":0,
				"roughnessFactor":0.5
			}
		}
	],
	"meshes":[
		{
			"name":"Cylinder.007",
			"primitives":[
				{
					"attributes":{
						"POSITION":0,
						"NORMAL":1,
						"TEXCOORD_0":2
					},
					"indices":3,
					"material":0
				}
			]
		}
	],
	"accessors":[
		{
			"bufferView":0,
			"componentType":5126,
			"count":3840,
			"max":[
				1.0922187566757202,
				1.5655843019485474,
				1.7325727939605713
			],
			"min":[
				-1.383055567741394,
				-1.3718371391296387,
				-0.661884069442749
			],
			"type":"VEC3"
		},
		{
			"bufferView":1,
			"componentType":5126,
			"count":3840,
			"type":"VEC3"
		},
		{
			"bufferView":2,
			"componentType":5126,
			"count":3840,
			"type":"VEC2"
		},
		{
			"bufferView":3,
			"componentType":5123,
			"count":3840,
			"type":"SCALAR"
		}
	],
	"bufferViews":[
		{
			"buffer":0,
			"byteLength":46080,
			"byteOffset":0,
			"target":34962
		},
		{
			"buffer":0,
			"byteLength":46080,
			"byteOffset":46080,
			"target":34962
		},
		{
			"buffer":0,
			"byteLength":30720,
			"byteOffset":92160,
			"target":34962
		},
		{
			"buffer":0,
			"byteLength":7680,
			"byteOffset":122880,
			"target":34963
		}
	],
	"buffers":[
		{
			"byteLength":130560,
			"uri":"bush.01.bin"
		}
	]
}
