{
	"asset":{
		"generator":"Khronos glTF Blender I/O v4.0.44",
		"version":"2.0"
	},
	"scene":0,
	"scenes":[
		{
			"name":"Scene",
			"nodes":[
				0
			]
		}
	],
	"nodes":[
		{
			"mesh":0,
			"name":"Mushrooms.01",
			"rotation":[
				0,
				-0.5923082232475281,
				0,
				0.8057115077972412
			],
			"scale":[
				0.3954588770866394,
				0.39545881748199463,
				0.3954588770866394
			],
			"translation":[
				-0.021015673875808716,
				0.17718634009361267,
				0.023377150297164917
			]
		}
	],
	"materials":[
		{
			"doubleSided":true,
			"name":"Mushroom.head",
			"pbrMetallicRoughness":{
				"baseColorFactor":[
					0.2789415121078491,
					0,
					0.09083513170480728,
					1
				],
				"metallicFactor":0,
				"roughnessFactor":0.10629922151565552
			}
		},
		{
			"doubleSided":true,
			"name":"Mushroom.trunk",
			"pbrMetallicRoughness":{}
		},
		{
			"doubleSided":true,
			"name":"Mushroom.head.light",
			"pbrMetallicRoughness":{
				"baseColorFactor":[
					0.4621550738811493,
					0,
					0.33713915944099426,
					1
				],
				"metallicFactor":0,
				"roughnessFactor":0.09055116772651672
			}
		}
	],
	"meshes":[
		{
			"name":"Sphere.002",
			"primitives":[
				{
					"attributes":{
						"POSITION":0,
						"NORMAL":1,
						"TEXCOORD_0":2
					},
					"indices":3,
					"material":0
				},
				{
					"attributes":{
						"POSITION":4,
						"NORMAL":5,
						"TEXCOORD_0":6
					},
					"indices":7,
					"material":1
				},
				{
					"attributes":{
						"POSITION":8,
						"NORMAL":9,
						"TEXCOORD_0":10
					},
					"indices":11,
					"material":2
				}
			]
		}
	],
	"accessors":[
		{
			"bufferView":0,
			"componentType":5126,
			"count":404,
			"max":[
				1.183120846748352,
				1.2989633083343506,
				1.4472578763961792
			],
			"min":[
				-1.722977638244629,
				0.31855839490890503,
				-1.944344401359558
			],
			"type":"VEC3"
		},
		{
			"bufferView":1,
			"componentType":5126,
			"count":404,
			"type":"VEC3"
		},
		{
			"bufferView":2,
			"componentType":5126,
			"count":404,
			"type":"VEC2"
		},
		{
			"bufferView":3,
			"componentType":5123,
			"count":408,
			"type":"SCALAR"
		},
		{
			"bufferView":4,
			"componentType":5126,
			"count":780,
			"max":[
				1.5191301107406616,
				1.100222110748291,
				1.1371814012527466
			],
			"min":[
				-1.3394579887390137,
				-0.28500303626060486,
				-1.5175789594650269
			],
			"type":"VEC3"
		},
		{
			"bufferView":5,
			"componentType":5126,
			"count":780,
			"type":"VEC3"
		},
		{
			"bufferView":6,
			"componentType":5126,
			"count":780,
			"type":"VEC2"
		},
		{
			"bufferView":7,
			"componentType":5123,
			"count":780,
			"type":"SCALAR"
		},
		{
			"bufferView":8,
			"componentType":5126,
			"count":406,
			"max":[
				1.6696860790252686,
				0.7535591125488281,
				1.2876611948013306
			],
			"min":[
				-1.3944993019104004,
				0.2170950472354889,
				-0.7922816276550293
			],
			"type":"VEC3"
		},
		{
			"bufferView":9,
			"componentType":5126,
			"count":406,
			"type":"VEC3"
		},
		{
			"bufferView":10,
			"componentType":5126,
			"count":406,
			"type":"VEC2"
		},
		{
			"bufferView":11,
			"componentType":5123,
			"count":408,
			"type":"SCALAR"
		}
	],
	"bufferViews":[
		{
			"buffer":0,
			"byteLength":4848,
			"byteOffset":0,
			"target":34962
		},
		{
			"buffer":0,
			"byteLength":4848,
			"byteOffset":4848,
			"target":34962
		},
		{
			"buffer":0,
			"byteLength":3232,
			"byteOffset":9696,
			"target":34962
		},
		{
			"buffer":0,
			"byteLength":816,
			"byteOffset":12928,
			"target":34963
		},
		{
			"buffer":0,
			"byteLength":9360,
			"byteOffset":13744,
			"target":34962
		},
		{
			"buffer":0,
			"byteLength":9360,
			"byteOffset":23104,
			"target":34962
		},
		{
			"buffer":0,
			"byteLength":6240,
			"byteOffset":32464,
			"target":34962
		},
		{
			"buffer":0,
			"byteLength":1560,
			"byteOffset":38704,
			"target":34963
		},
		{
			"buffer":0,
			"byteLength":4872,
			"byteOffset":40264,
			"target":34962
		},
		{
			"buffer":0,
			"byteLength":4872,
			"byteOffset":45136,
			"target":34962
		},
		{
			"buffer":0,
			"byteLength":3248,
			"byteOffset":50008,
			"target":34962
		},
		{
			"buffer":0,
			"byteLength":816,
			"byteOffset":53256,
			"target":34963
		}
	],
	"buffers":[
		{
			"byteLength":54072,
			"uri":"mushroom.01.bin"
		}
	]
}
