{
	"asset":{
		"generator":"Khronos glTF Blender I/O v4.0.44",
		"version":"2.0"
	},
	"extensionsUsed":[
		"KHR_materials_specular",
		"KHR_materials_sheen",
		"KHR_materials_ior"
	],
	"scene":0,
	"scenes":[
		{
			"name":"Scene",
			"nodes":[
				0
			]
		}
	],
	"nodes":[
		{
			"mesh":0,
			"name":"Rainbow_flower.02",
			"rotation":[
				-0.31301406025886536,
				0.3924194872379303,
				0.4177291989326477,
				0.7573187351226807
			],
			"scale":[
				0.056696031242609024,
				0.056696031242609024,
				0.056696031242609024
			]
		}
	],
	"materials":[
		{
			"doubleSided":true,
			"name":"flower.red.001",
			"pbrMetallicRoughness":{
				"baseColorFactor":[
					0.8003851175308228,
					0.03501404449343681,
					0.03501404449343681,
					1
				],
				"metallicFactor":0,
				"roughnessFactor":0.10000000149011612
			}
		},
		{
			"doubleSided":true,
			"name":"flower.orange.001",
			"pbrMetallicRoughness":{
				"baseColorFactor":[
					0.8001260757446289,
					0.1318015158176422,
					0.01681038737297058,
					1
				],
				"metallicFactor":0,
				"roughnessFactor":0.10000000149011612
			}
		},
		{
			"doubleSided":true,
			"name":"flower.yellow.001",
			"pbrMetallicRoughness":{
				"baseColorFactor":[
					0.8002194166183472,
					0.6757102608680725,
					0.03235418722033501,
					1
				],
				"metallicFactor":0,
				"roughnessFactor":0.10000000149011612
			}
		},
		{
			"doubleSided":true,
			"name":"flower.green.001",
			"pbrMetallicRoughness":{
				"baseColorFactor":[
					0.04402235522866249,
					0.8000937700271606,
					0.0645524114370346,
					1
				],
				"metallicFactor":0,
				"roughnessFactor":0.10000000149011612
			}
		},
		{
			"doubleSided":true,
			"name":"flower.blue.001",
			"pbrMetallicRoughness":{
				"baseColorFactor":[
					0.027240831404924393,
					0.4290585219860077,
					0.8006788492202759,
					1
				],
				"metallicFactor":0,
				"roughnessFactor":0.5
			}
		},
		{
			"doubleSided":true,
			"name":"flower.darkblue.001",
			"pbrMetallicRoughness":{
				"baseColorFactor":[
					0.04119168221950531,
					0.032144274562597275,
					0.8001194596290588,
					1
				],
				"metallicFactor":0,
				"roughnessFactor":0.5
			}
		},
		{
			"doubleSided":true,
			"name":"flower.violet.001",
			"pbrMetallicRoughness":{
				"baseColorFactor":[
					0.5949894189834595,
					0.032617826014757156,
					0.9241518974304199,
					1
				],
				"metallicFactor":0,
				"roughnessFactor":0.10000000149011612
			}
		},
		{
			"doubleSided":true,
			"extensions":{
				"KHR_materials_specular":{
					"specularColorFactor":[
						1.5669291019439697,
						1.5669291019439697,
						1.5669291019439697
					]
				},
				"KHR_materials_sheen":{
					"sheenColorFactor":[
						1.0,
						1.0,
						1.0
					],
					"sheenRoughnessFactor":0.09842520952224731
				},
				"KHR_materials_ior":{
					"ior":1.4500000476837158
				}
			},
			"name":"Tree.green.dark.SHINY.001",
			"pbrMetallicRoughness":{
				"baseColorFactor":[
					0,
					0.4793357253074646,
					0.009730977937579155,
					1
				],
				"metallicFactor":0,
				"roughnessFactor":0.05118110775947571
			}
		},
		{
			"doubleSided":true,
			"name":"leaf.green.001",
			"pbrMetallicRoughness":{
				"baseColorFactor":[
					0.2549974322319031,
					0.8005914688110352,
					0.07109880447387695,
					1
				],
				"metallicFactor":0,
				"roughnessFactor":0.5
			}
		}
	],
	"meshes":[
		{
			"name":"Plane.002",
			"primitives":[
				{
					"attributes":{
						"POSITION":0,
						"NORMAL":1,
						"TEXCOORD_0":2
					},
					"indices":3,
					"material":0
				},
				{
					"attributes":{
						"POSITION":4,
						"NORMAL":5,
						"TEXCOORD_0":6
					},
					"indices":7,
					"material":1
				},
				{
					"attributes":{
						"POSITION":8,
						"NORMAL":9,
						"TEXCOORD_0":10
					},
					"indices":11,
					"material":2
				},
				{
					"attributes":{
						"POSITION":12,
						"NORMAL":13,
						"TEXCOORD_0":14
					},
					"indices":15,
					"material":3
				},
				{
					"attributes":{
						"POSITION":16,
						"NORMAL":17,
						"TEXCOORD_0":18
					},
					"indices":19,
					"material":4
				},
				{
					"attributes":{
						"POSITION":20,
						"NORMAL":21,
						"TEXCOORD_0":22
					},
					"indices":23,
					"material":5
				},
				{
					"attributes":{
						"POSITION":24,
						"NORMAL":25,
						"TEXCOORD_0":26
					},
					"indices":27,
					"material":6
				},
				{
					"attributes":{
						"POSITION":28,
						"NORMAL":29,
						"TEXCOORD_0":30
					},
					"indices":31,
					"material":7
				},
				{
					"attributes":{
						"POSITION":32,
						"NORMAL":33,
						"TEXCOORD_0":34
					},
					"indices":35,
					"material":8
				}
			]
		}
	],
	"accessors":[
		{
			"bufferView":0,
			"componentType":5126,
			"count":108,
			"max":[
				2.5878548622131348,
				6.726171970367432,
				7.1088128089904785
			],
			"min":[
				-1.859497308731079,
				2.535027027130127,
				5.105051517486572
			],
			"type":"VEC3"
		},
		{
			"bufferView":1,
			"componentType":5126,
			"count":108,
			"type":"VEC3"
		},
		{
			"bufferView":2,
			"componentType":5126,
			"count":108,
			"type":"VEC2"
		},
		{
			"bufferView":3,
			"componentType":5123,
			"count":108,
			"type":"SCALAR"
		},
		{
			"bufferView":4,
			"componentType":5126,
			"count":108,
			"max":[
				2.5364034175872803,
				4.85909366607666,
				7.812922477722168
			],
			"min":[
				-3.2675423622131348,
				1.6216140985488892,
				5.277576446533203
			],
			"type":"VEC3"
		},
		{
			"bufferView":5,
			"componentType":5126,
			"count":108,
			"type":"VEC3"
		},
		{
			"bufferView":6,
			"componentType":5126,
			"count":108,
			"type":"VEC2"
		},
		{
			"bufferView":7,
			"componentType":5123,
			"count":108,
			"type":"SCALAR"
		},
		{
			"bufferView":8,
			"componentType":5126,
			"count":108,
			"max":[
				2.59432053565979,
				4.145724773406982,
				9.080642700195312
			],
			"min":[
				-1.0093731880187988,
				-0.03492419049143791,
				5.132333755493164
			],
			"type":"VEC3"
		},
		{
			"bufferView":9,
			"componentType":5126,
			"count":108,
			"type":"VEC3"
		},
		{
			"bufferView":10,
			"componentType":5126,
			"count":108,
			"type":"VEC2"
		},
		{
			"bufferView":11,
			"componentType":5123,
			"count":108,
			"type":"SCALAR"
		},
		{
			"bufferView":12,
			"componentType":5126,
			"count":108,
			"max":[
				3.6294748783111572,
				4.19211483001709,
				9.379537582397461
			],
			"min":[
				0.524182915687561,
				0.07140471041202545,
				5.495135307312012
			],
			"type":"VEC3"
		},
		{
			"bufferView":13,
			"componentType":5126,
			"count":108,
			"type":"VEC3"
		},
		{
			"bufferView":14,
			"componentType":5126,
			"count":108,
			"type":"VEC2"
		},
		{
			"bufferView":15,
			"componentType":5123,
			"count":108,
			"type":"SCALAR"
		},
		{
			"bufferView":16,
			"componentType":5126,
			"count":834,
			"max":[
				5.6094231605529785,
				5.906116008758545,
				9.874055862426758
			],
			"min":[
				-0.8602343797683716,
				1.6440199613571167,
				5.530482292175293
			],
			"type":"VEC3"
		},
		{
			"bufferView":17,
			"componentType":5126,
			"count":834,
			"type":"VEC3"
		},
		{
			"bufferView":18,
			"componentType":5126,
			"count":834,
			"type":"VEC2"
		},
		{
			"bufferView":19,
			"componentType":5123,
			"count":834,
			"type":"SCALAR"
		},
		{
			"bufferView":20,
			"componentType":5126,
			"count":2262,
			"max":[
				5.389374732971191,
				6.693009853363037,
				9.289918899536133
			],
			"min":[
				-0.8602343797683716,
				2.0325822830200195,
				5.431750774383545
			],
			"type":"VEC3"
		},
		{
			"bufferView":21,
			"componentType":5126,
			"count":2262,
			"type":"VEC3"
		},
		{
			"bufferView":22,
			"componentType":5126,
			"count":2262,
			"type":"VEC2"
		},
		{
			"bufferView":23,
			"componentType":5123,
			"count":2262,
			"type":"SCALAR"
		},
		{
			"bufferView":24,
			"componentType":5126,
			"count":108,
			"max":[
				3.21537184715271,
				8.584867477416992,
				7.499803066253662
			],
			"min":[
				-0.3015168011188507,
				2.6821353435516357,
				5.300415992736816
			],
			"type":"VEC3"
		},
		{
			"bufferView":25,
			"componentType":5126,
			"count":108,
			"type":"VEC3"
		},
		{
			"bufferView":26,
			"componentType":5126,
			"count":108,
			"type":"VEC2"
		},
		{
			"bufferView":27,
			"componentType":5123,
			"count":108,
			"type":"SCALAR"
		},
		{
			"bufferView":28,
			"componentType":5126,
			"count":108,
			"max":[
				3.1721479892730713,
				4.48206901550293,
				6.354458332061768
			],
			"min":[
				-1.9014885425567627,
				-0.4196000099182129,
				-1.1372309923171997
			],
			"type":"VEC3"
		},
		{
			"bufferView":29,
			"componentType":5126,
			"count":108,
			"type":"VEC3"
		},
		{
			"bufferView":30,
			"componentType":5126,
			"count":108,
			"type":"VEC2"
		},
		{
			"bufferView":31,
			"componentType":5123,
			"count":108,
			"type":"SCALAR"
		},
		{
			"bufferView":32,
			"componentType":5126,
			"count":60,
			"max":[
				3.296727418899536,
				6.973014831542969,
				4.795654773712158
			],
			"min":[
				-0.7171938419342041,
				-2.4252822399139404,
				-0.7196125984191895
			],
			"type":"VEC3"
		},
		{
			"bufferView":33,
			"componentType":5126,
			"count":60,
			"type":"VEC3"
		},
		{
			"bufferView":34,
			"componentType":5126,
			"count":60,
			"type":"VEC2"
		},
		{
			"bufferView":35,
			"componentType":5123,
			"count":60,
			"type":"SCALAR"
		}
	],
	"bufferViews":[
		{
			"buffer":0,
			"byteLength":1296,
			"byteOffset":0,
			"target":34962
		},
		{
			"buffer":0,
			"byteLength":1296,
			"byteOffset":1296,
			"target":34962
		},
		{
			"buffer":0,
			"byteLength":864,
			"byteOffset":2592,
			"target":34962
		},
		{
			"buffer":0,
			"byteLength":216,
			"byteOffset":3456,
			"target":34963
		},
		{
			"buffer":0,
			"byteLength":1296,
			"byteOffset":3672,
			"target":34962
		},
		{
			"buffer":0,
			"byteLength":1296,
			"byteOffset":4968,
			"target":34962
		},
		{
			"buffer":0,
			"byteLength":864,
			"byteOffset":6264,
			"target":34962
		},
		{
			"buffer":0,
			"byteLength":216,
			"byteOffset":7128,
			"target":34963
		},
		{
			"buffer":0,
			"byteLength":1296,
			"byteOffset":7344,
			"target":34962
		},
		{
			"buffer":0,
			"byteLength":1296,
			"byteOffset":8640,
			"target":34962
		},
		{
			"buffer":0,
			"byteLength":864,
			"byteOffset":9936,
			"target":34962
		},
		{
			"buffer":0,
			"byteLength":216,
			"byteOffset":10800,
			"target":34963
		},
		{
			"buffer":0,
			"byteLength":1296,
			"byteOffset":11016,
			"target":34962
		},
		{
			"buffer":0,
			"byteLength":1296,
			"byteOffset":12312,
			"target":34962
		},
		{
			"buffer":0,
			"byteLength":864,
			"byteOffset":13608,
			"target":34962
		},
		{
			"buffer":0,
			"byteLength":216,
			"byteOffset":14472,
			"target":34963
		},
		{
			"buffer":0,
			"byteLength":10008,
			"byteOffset":14688,
			"target":34962
		},
		{
			"buffer":0,
			"byteLength":10008,
			"byteOffset":24696,
			"target":34962
		},
		{
			"buffer":0,
			"byteLength":6672,
			"byteOffset":34704,
			"target":34962
		},
		{
			"buffer":0,
			"byteLength":1668,
			"byteOffset":41376,
			"target":34963
		},
		{
			"buffer":0,
			"byteLength":27144,
			"byteOffset":43044,
			"target":34962
		},
		{
			"buffer":0,
			"byteLength":27144,
			"byteOffset":70188,
			"target":34962
		},
		{
			"buffer":0,
			"byteLength":18096,
			"byteOffset":97332,
			"target":34962
		},
		{
			"buffer":0,
			"byteLength":4524,
			"byteOffset":115428,
			"target":34963
		},
		{
			"buffer":0,
			"byteLength":1296,
			"byteOffset":119952,
			"target":34962
		},
		{
			"buffer":0,
			"byteLength":1296,
			"byteOffset":121248,
			"target":34962
		},
		{
			"buffer":0,
			"byteLength":864,
			"byteOffset":122544,
			"target":34962
		},
		{
			"buffer":0,
			"byteLength":216,
			"byteOffset":123408,
			"target":34963
		},
		{
			"buffer":0,
			"byteLength":1296,
			"byteOffset":123624,
			"target":34962
		},
		{
			"buffer":0,
			"byteLength":1296,
			"byteOffset":124920,
			"target":34962
		},
		{
			"buffer":0,
			"byteLength":864,
			"byteOffset":126216,
			"target":34962
		},
		{
			"buffer":0,
			"byteLength":216,
			"byteOffset":127080,
			"target":34963
		},
		{
			"buffer":0,
			"byteLength":720,
			"byteOffset":127296,
			"target":34962
		},
		{
			"buffer":0,
			"byteLength":720,
			"byteOffset":128016,
			"target":34962
		},
		{
			"buffer":0,
			"byteLength":480,
			"byteOffset":128736,
			"target":34962
		},
		{
			"buffer":0,
			"byteLength":120,
			"byteOffset":129216,
			"target":34963
		}
	],
	"buffers":[
		{
			"byteLength":129336,
			"uri":"rainbowflower.02.bin"
		}
	]
}
