{
	"asset":{
		"generator":"Khronos glTF Blender I/O v4.0.44",
		"version":"2.0"
	},
	"extensionsUsed":[
		"KHR_materials_specular",
		"KHR_materials_sheen",
		"KHR_materials_ior"
	],
	"scene":0,
	"scenes":[
		{
			"name":"Scene",
			"nodes":[
				0
			]
		}
	],
	"nodes":[
		{
			"mesh":0,
			"name":"rainbow_flower.01",
			"rotation":[
				-0.433786004781723,
				0.11919650435447693,
				0.29035359621047974,
				0.844580888748169
			],
			"scale":[
				0.056696031242609024,
				0.056696031242609024,
				0.056696031242609024
			]
		}
	],
	"materials":[
		{
			"doubleSided":true,
			"name":"flower.red",
			"pbrMetallicRoughness":{
				"baseColorFactor":[
					0.8003851175308228,
					0.03501404449343681,
					0.03501404449343681,
					1
				],
				"metallicFactor":0,
				"roughnessFactor":0.10000000149011612
			}
		},
		{
			"doubleSided":true,
			"name":"flower.orange",
			"pbrMetallicRoughness":{
				"baseColorFactor":[
					0.8001260757446289,
					0.1318015158176422,
					0.01681038737297058,
					1
				],
				"metallicFactor":0,
				"roughnessFactor":0.10000000149011612
			}
		},
		{
			"doubleSided":true,
			"name":"flower.yellow",
			"pbrMetallicRoughness":{
				"baseColorFactor":[
					0.8002194166183472,
					0.6757102608680725,
					0.03235418722033501,
					1
				],
				"metallicFactor":0,
				"roughnessFactor":0.10000000149011612
			}
		},
		{
			"doubleSided":true,
			"name":"flower.green",
			"pbrMetallicRoughness":{
				"baseColorFactor":[
					0.04402235522866249,
					0.8000937700271606,
					0.0645524114370346,
					1
				],
				"metallicFactor":0,
				"roughnessFactor":0.10000000149011612
			}
		},
		{
			"doubleSided":true,
			"name":"flower.blue",
			"pbrMetallicRoughness":{
				"baseColorFactor":[
					0.027240831404924393,
					0.4290585219860077,
					0.8006788492202759,
					1
				],
				"metallicFactor":0,
				"roughnessFactor":0.5
			}
		},
		{
			"doubleSided":true,
			"name":"flower.darkblue",
			"pbrMetallicRoughness":{
				"baseColorFactor":[
					0.04119168221950531,
					0.032144274562597275,
					0.8001194596290588,
					1
				],
				"metallicFactor":0,
				"roughnessFactor":0.5
			}
		},
		{
			"doubleSided":true,
			"name":"flower.violet",
			"pbrMetallicRoughness":{
				"baseColorFactor":[
					0.5949894189834595,
					0.032617826014757156,
					0.9241518974304199,
					1
				],
				"metallicFactor":0,
				"roughnessFactor":0.10000000149011612
			}
		},
		{
			"doubleSided":true,
			"extensions":{
				"KHR_materials_specular":{
					"specularColorFactor":[
						1.5669291019439697,
						1.5669291019439697,
						1.5669291019439697
					]
				},
				"KHR_materials_sheen":{
					"sheenColorFactor":[
						1.0,
						1.0,
						1.0
					],
					"sheenRoughnessFactor":0.09842520952224731
				},
				"KHR_materials_ior":{
					"ior":1.4500000476837158
				}
			},
			"name":"Tree.green.dark.SHINY",
			"pbrMetallicRoughness":{
				"baseColorFactor":[
					0,
					0.4793357253074646,
					0.009730977937579155,
					1
				],
				"metallicFactor":0,
				"roughnessFactor":0.05118110775947571
			}
		},
		{
			"doubleSided":true,
			"name":"leaf.green",
			"pbrMetallicRoughness":{
				"baseColorFactor":[
					0.2549974322319031,
					0.8005914688110352,
					0.07109880447387695,
					1
				],
				"metallicFactor":0,
				"roughnessFactor":0.5
			}
		}
	],
	"meshes":[
		{
			"name":"Plane.001",
			"primitives":[
				{
					"attributes":{
						"POSITION":0,
						"NORMAL":1,
						"TEXCOORD_0":2
					},
					"indices":3,
					"material":0
				},
				{
					"attributes":{
						"POSITION":4,
						"NORMAL":5,
						"TEXCOORD_0":6
					},
					"indices":7,
					"material":1
				},
				{
					"attributes":{
						"POSITION":8,
						"NORMAL":9,
						"TEXCOORD_0":10
					},
					"indices":11,
					"material":2
				},
				{
					"attributes":{
						"POSITION":12,
						"NORMAL":13,
						"TEXCOORD_0":14
					},
					"indices":15,
					"material":3
				},
				{
					"attributes":{
						"POSITION":16,
						"NORMAL":17,
						"TEXCOORD_0":18
					},
					"indices":19,
					"material":4
				},
				{
					"attributes":{
						"POSITION":20,
						"NORMAL":21,
						"TEXCOORD_0":22
					},
					"indices":23,
					"material":5
				},
				{
					"attributes":{
						"POSITION":24,
						"NORMAL":25,
						"TEXCOORD_0":26
					},
					"indices":27,
					"material":6
				},
				{
					"attributes":{
						"POSITION":28,
						"NORMAL":29,
						"TEXCOORD_0":30
					},
					"indices":31,
					"material":7
				},
				{
					"attributes":{
						"POSITION":32,
						"NORMAL":33,
						"TEXCOORD_0":34
					},
					"indices":35,
					"material":8
				}
			]
		}
	],
	"accessors":[
		{
			"bufferView":0,
			"componentType":5126,
			"count":108,
			"max":[
				3.2320635318756104,
				6.7865777015686035,
				7.421024322509766
			],
			"min":[
				-0.8989866971969604,
				2.6359496116638184,
				5.584280014038086
			],
			"type":"VEC3"
		},
		{
			"bufferView":1,
			"componentType":5126,
			"count":108,
			"type":"VEC3"
		},
		{
			"bufferView":2,
			"componentType":5126,
			"count":108,
			"type":"VEC2"
		},
		{
			"bufferView":3,
			"componentType":5123,
			"count":108,
			"type":"SCALAR"
		},
		{
			"bufferView":4,
			"componentType":5126,
			"count":108,
			"max":[
				3.3557794094085693,
				4.588227272033691,
				8.189557075500488
			],
			"min":[
				-2.005431652069092,
				1.295287013053894,
				5.8066511154174805
			],
			"type":"VEC3"
		},
		{
			"bufferView":5,
			"componentType":5126,
			"count":108,
			"type":"VEC3"
		},
		{
			"bufferView":6,
			"componentType":5126,
			"count":108,
			"type":"VEC2"
		},
		{
			"bufferView":7,
			"componentType":5123,
			"count":108,
			"type":"SCALAR"
		},
		{
			"bufferView":8,
			"componentType":5126,
			"count":108,
			"max":[
				3.6523842811584473,
				3.732276439666748,
				9.347512245178223
			],
			"min":[
				-0.19368791580200195,
				-0.262503445148468,
				5.946554660797119
			],
			"type":"VEC3"
		},
		{
			"bufferView":9,
			"componentType":5126,
			"count":108,
			"type":"VEC3"
		},
		{
			"bufferView":10,
			"componentType":5126,
			"count":108,
			"type":"VEC2"
		},
		{
			"bufferView":11,
			"componentType":5123,
			"count":108,
			"type":"SCALAR"
		},
		{
			"bufferView":12,
			"componentType":5126,
			"count":108,
			"max":[
				4.656979084014893,
				4.0880446434021,
				9.998784065246582
			],
			"min":[
				1.6274924278259277,
				-0.18431779742240906,
				6.087244033813477
			],
			"type":"VEC3"
		},
		{
			"bufferView":13,
			"componentType":5126,
			"count":108,
			"type":"VEC3"
		},
		{
			"bufferView":14,
			"componentType":5126,
			"count":108,
			"type":"VEC2"
		},
		{
			"bufferView":15,
			"componentType":5123,
			"count":108,
			"type":"SCALAR"
		},
		{
			"bufferView":16,
			"componentType":5126,
			"count":108,
			"max":[
				6.294057846069336,
				4.9842529296875,
				10.36148738861084
			],
			"min":[
				2.308006763458252,
				1.5527098178863525,
				6.03673791885376
			],
			"type":"VEC3"
		},
		{
			"bufferView":17,
			"componentType":5126,
			"count":108,
			"type":"VEC3"
		},
		{
			"bufferView":18,
			"componentType":5126,
			"count":108,
			"type":"VEC2"
		},
		{
			"bufferView":19,
			"componentType":5123,
			"count":108,
			"type":"SCALAR"
		},
		{
			"bufferView":20,
			"componentType":5126,
			"count":108,
			"max":[
				6.0873637199401855,
				6.402836799621582,
				9.407011032104492
			],
			"min":[
				1.8153738975524902,
				2.7975287437438965,
				5.972377300262451
			],
			"type":"VEC3"
		},
		{
			"bufferView":21,
			"componentType":5126,
			"count":108,
			"type":"VEC3"
		},
		{
			"bufferView":22,
			"componentType":5126,
			"count":108,
			"type":"VEC2"
		},
		{
			"bufferView":23,
			"componentType":5123,
			"count":108,
			"type":"SCALAR"
		},
		{
			"bufferView":24,
			"componentType":5126,
			"count":108,
			"max":[
				4.339606285095215,
				8.237375259399414,
				7.959031581878662
			],
			"min":[
				0.9810574054718018,
				2.6958978176116943,
				5.959271430969238
			],
			"type":"VEC3"
		},
		{
			"bufferView":25,
			"componentType":5126,
			"count":108,
			"type":"VEC3"
		},
		{
			"bufferView":26,
			"componentType":5126,
			"count":108,
			"type":"VEC2"
		},
		{
			"bufferView":27,
			"componentType":5123,
			"count":108,
			"type":"SCALAR"
		},
		{
			"bufferView":28,
			"componentType":5126,
			"count":108,
			"max":[
				4.130417823791504,
				4.017679214477539,
				7.1332597732543945
			],
			"min":[
				-0.7647024393081665,
				-0.4500739276409149,
				-0.5723235011100769
			],
			"type":"VEC3"
		},
		{
			"bufferView":29,
			"componentType":5126,
			"count":108,
			"type":"VEC3"
		},
		{
			"bufferView":30,
			"componentType":5126,
			"count":108,
			"type":"VEC2"
		},
		{
			"bufferView":31,
			"componentType":5123,
			"count":108,
			"type":"SCALAR"
		},
		{
			"bufferView":32,
			"componentType":5126,
			"count":24,
			"max":[
				3.97894287109375,
				2.459193229675293,
				5.291825771331787
			],
			"min":[
				1.081725835800171,
				-1.3788089752197266,
				0.7561297416687012
			],
			"type":"VEC3"
		},
		{
			"bufferView":33,
			"componentType":5126,
			"count":24,
			"type":"VEC3"
		},
		{
			"bufferView":34,
			"componentType":5126,
			"count":24,
			"type":"VEC2"
		},
		{
			"bufferView":35,
			"componentType":5123,
			"count":24,
			"type":"SCALAR"
		}
	],
	"bufferViews":[
		{
			"buffer":0,
			"byteLength":1296,
			"byteOffset":0,
			"target":34962
		},
		{
			"buffer":0,
			"byteLength":1296,
			"byteOffset":1296,
			"target":34962
		},
		{
			"buffer":0,
			"byteLength":864,
			"byteOffset":2592,
			"target":34962
		},
		{
			"buffer":0,
			"byteLength":216,
			"byteOffset":3456,
			"target":34963
		},
		{
			"buffer":0,
			"byteLength":1296,
			"byteOffset":3672,
			"target":34962
		},
		{
			"buffer":0,
			"byteLength":1296,
			"byteOffset":4968,
			"target":34962
		},
		{
			"buffer":0,
			"byteLength":864,
			"byteOffset":6264,
			"target":34962
		},
		{
			"buffer":0,
			"byteLength":216,
			"byteOffset":7128,
			"target":34963
		},
		{
			"buffer":0,
			"byteLength":1296,
			"byteOffset":7344,
			"target":34962
		},
		{
			"buffer":0,
			"byteLength":1296,
			"byteOffset":8640,
			"target":34962
		},
		{
			"buffer":0,
			"byteLength":864,
			"byteOffset":9936,
			"target":34962
		},
		{
			"buffer":0,
			"byteLength":216,
			"byteOffset":10800,
			"target":34963
		},
		{
			"buffer":0,
			"byteLength":1296,
			"byteOffset":11016,
			"target":34962
		},
		{
			"buffer":0,
			"byteLength":1296,
			"byteOffset":12312,
			"target":34962
		},
		{
			"buffer":0,
			"byteLength":864,
			"byteOffset":13608,
			"target":34962
		},
		{
			"buffer":0,
			"byteLength":216,
			"byteOffset":14472,
			"target":34963
		},
		{
			"buffer":0,
			"byteLength":1296,
			"byteOffset":14688,
			"target":34962
		},
		{
			"buffer":0,
			"byteLength":1296,
			"byteOffset":15984,
			"target":34962
		},
		{
			"buffer":0,
			"byteLength":864,
			"byteOffset":17280,
			"target":34962
		},
		{
			"buffer":0,
			"byteLength":216,
			"byteOffset":18144,
			"target":34963
		},
		{
			"buffer":0,
			"byteLength":1296,
			"byteOffset":18360,
			"target":34962
		},
		{
			"buffer":0,
			"byteLength":1296,
			"byteOffset":19656,
			"target":34962
		},
		{
			"buffer":0,
			"byteLength":864,
			"byteOffset":20952,
			"target":34962
		},
		{
			"buffer":0,
			"byteLength":216,
			"byteOffset":21816,
			"target":34963
		},
		{
			"buffer":0,
			"byteLength":1296,
			"byteOffset":22032,
			"target":34962
		},
		{
			"buffer":0,
			"byteLength":1296,
			"byteOffset":23328,
			"target":34962
		},
		{
			"buffer":0,
			"byteLength":864,
			"byteOffset":24624,
			"target":34962
		},
		{
			"buffer":0,
			"byteLength":216,
			"byteOffset":25488,
			"target":34963
		},
		{
			"buffer":0,
			"byteLength":1296,
			"byteOffset":25704,
			"target":34962
		},
		{
			"buffer":0,
			"byteLength":1296,
			"byteOffset":27000,
			"target":34962
		},
		{
			"buffer":0,
			"byteLength":864,
			"byteOffset":28296,
			"target":34962
		},
		{
			"buffer":0,
			"byteLength":216,
			"byteOffset":29160,
			"target":34963
		},
		{
			"buffer":0,
			"byteLength":288,
			"byteOffset":29376,
			"target":34962
		},
		{
			"buffer":0,
			"byteLength":288,
			"byteOffset":29664,
			"target":34962
		},
		{
			"buffer":0,
			"byteLength":192,
			"byteOffset":29952,
			"target":34962
		},
		{
			"buffer":0,
			"byteLength":48,
			"byteOffset":30144,
			"target":34963
		}
	],
	"buffers":[
		{
			"byteLength":30192,
			"uri":"rainbowflower.01.bin"
		}
	]
}
