{
	"asset":{
		"generator":"Khronos glTF Blender I/O v4.0.44",
		"version":"2.0"
	},
	"scene":0,
	"scenes":[
		{
			"name":"Scene",
			"nodes":[
				0
			]
		}
	],
	"nodes":[
		{
			"mesh":0,
			"name":"Rock.01"
		}
	],
	"materials":[
		{
			"doubleSided":true,
			"name":"Rock.Dark",
			"pbrMetallicRoughness":{}
		},
		{
			"doubleSided":true,
			"name":"Rock.Basecol",
			"pbrMetallicRoughness":{
				"baseColorFactor":[
					0.09845799207687378,
					0.09845799207687378,
					0.09845799207687378,
					1
				],
				"metallicFactor":0,
				"roughnessFactor":0.7834645509719849
			}
		}
	],
	"meshes":[
		{
			"name":"Sphere.001",
			"primitives":[
				{
					"attributes":{
						"POSITION":0,
						"NORMAL":1,
						"TEXCOORD_0":2
					},
					"indices":3,
					"material":0
				},
				{
					"attributes":{
						"POSITION":4,
						"NORMAL":5,
						"TEXCOORD_0":6
					},
					"indices":7,
					"material":1
				}
			]
		}
	],
	"accessors":[
		{
			"bufferView":0,
			"componentType":5126,
			"count":112,
			"max":[
				-0.27306342124938965,
				0.23228362202644348,
				0.6627629399299622
			],
			"min":[
				-0.513980507850647,
				0.0601605549454689,
				0.5144790410995483
			],
			"type":"VEC3"
		},
		{
			"bufferView":1,
			"componentType":5126,
			"count":112,
			"type":"VEC3"
		},
		{
			"bufferView":2,
			"componentType":5126,
			"count":112,
			"type":"VEC2"
		},
		{
			"bufferView":3,
			"componentType":5123,
			"count":168,
			"type":"SCALAR"
		},
		{
			"bufferView":4,
			"componentType":5126,
			"count":542,
			"max":[
				0.7577246427536011,
				1.0149742364883423,
				0.9307346940040588
			],
			"min":[
				-0.652582049369812,
				-0.0818750187754631,
				-0.6236376166343689
			],
			"type":"VEC3"
		},
		{
			"bufferView":5,
			"componentType":5126,
			"count":542,
			"type":"VEC3"
		},
		{
			"bufferView":6,
			"componentType":5126,
			"count":542,
			"type":"VEC2"
		},
		{
			"bufferView":7,
			"componentType":5123,
			"count":624,
			"type":"SCALAR"
		}
	],
	"bufferViews":[
		{
			"buffer":0,
			"byteLength":1344,
			"byteOffset":0,
			"target":34962
		},
		{
			"buffer":0,
			"byteLength":1344,
			"byteOffset":1344,
			"target":34962
		},
		{
			"buffer":0,
			"byteLength":896,
			"byteOffset":2688,
			"target":34962
		},
		{
			"buffer":0,
			"byteLength":336,
			"byteOffset":3584,
			"target":34963
		},
		{
			"buffer":0,
			"byteLength":6504,
			"byteOffset":3920,
			"target":34962
		},
		{
			"buffer":0,
			"byteLength":6504,
			"byteOffset":10424,
			"target":34962
		},
		{
			"buffer":0,
			"byteLength":4336,
			"byteOffset":16928,
			"target":34962
		},
		{
			"buffer":0,
			"byteLength":1248,
			"byteOffset":21264,
			"target":34963
		}
	],
	"buffers":[
		{
			"byteLength":22512,
			"uri":"rock.02.bin"
		}
	]
}
