{
	"asset":{
		"generator":"Khronos glTF Blender I/O v4.0.44",
		"version":"2.0"
	},
	"scene":0,
	"scenes":[
		{
			"name":"Scene",
			"nodes":[
				0
			]
		}
	],
	"nodes":[
		{
			"mesh":0,
			"name":"Rock.02",
			"scale":[
				0.8594396710395813,
				0.8594396710395813,
				0.8594396710395813
			]
		}
	],
	"materials":[
		{
			"doubleSided":true,
			"name":"Rock.Basecol",
			"pbrMetallicRoughness":{
				"baseColorFactor":[
					0.09845799207687378,
					0.09845799207687378,
					0.09845799207687378,
					1
				],
				"metallicFactor":0,
				"roughnessFactor":0.7834645509719849
			}
		}
	],
	"meshes":[
		{
			"name":"Sphere.003",
			"primitives":[
				{
					"attributes":{
						"POSITION":0,
						"NORMAL":1,
						"TEXCOORD_0":2
					},
					"indices":3,
					"material":0
				}
			]
		}
	],
	"accessors":[
		{
			"bufferView":0,
			"componentType":5126,
			"count":624,
			"max":[
				0.815629243850708,
				1.3484610319137573,
				0.9576402902603149
			],
			"min":[
				-0.6044774055480957,
				-0.17560401558876038,
				-0.5807828903198242
			],
			"type":"VEC3"
		},
		{
			"bufferView":1,
			"componentType":5126,
			"count":624,
			"type":"VEC3"
		},
		{
			"bufferView":2,
			"componentType":5126,
			"count":624,
			"type":"VEC2"
		},
		{
			"bufferView":3,
			"componentType":5123,
			"count":624,
			"type":"SCALAR"
		}
	],
	"bufferViews":[
		{
			"buffer":0,
			"byteLength":7488,
			"byteOffset":0,
			"target":34962
		},
		{
			"buffer":0,
			"byteLength":7488,
			"byteOffset":7488,
			"target":34962
		},
		{
			"buffer":0,
			"byteLength":4992,
			"byteOffset":14976,
			"target":34962
		},
		{
			"buffer":0,
			"byteLength":1248,
			"byteOffset":19968,
			"target":34963
		}
	],
	"buffers":[
		{
			"byteLength":21216,
			"uri":"rock.03.bin"
		}
	]
}
