{
	"asset":{
		"generator":"Khronos glTF Blender I/O v4.0.44",
		"version":"2.0"
	},
	"scene":0,
	"scenes":[
		{
			"name":"Scene",
			"nodes":[
				0
			]
		}
	],
	"nodes":[
		{
			"mesh":0,
			"name":"Rock.03"
		}
	],
	"materials":[
		{
			"doubleSided":true,
			"name":"Rock.Basecol",
			"pbrMetallicRoughness":{
				"baseColorFactor":[
					0.18867939710617065,
					0.18867939710617065,
					0.18867939710617065,
					1
				],
				"metallicFactor":0,
				"roughnessFactor":0.7283464670181274
			}
		}
	],
	"meshes":[
		{
			"name":"Cube.003",
			"primitives":[
				{
					"attributes":{
						"POSITION":0,
						"NORMAL":1,
						"TEXCOORD_0":2
					},
					"indices":3,
					"material":0
				}
			]
		}
	],
	"accessors":[
		{
			"bufferView":0,
			"componentType":5126,
			"count":926,
			"max":[
				0.548228919506073,
				0.511226236820221,
				0.5665419101715088
			],
			"min":[
				-0.369717538356781,
				-0.13054229319095612,
				-0.5576375126838684
			],
			"type":"VEC3"
		},
		{
			"bufferView":1,
			"componentType":5126,
			"count":926,
			"type":"VEC3"
		},
		{
			"bufferView":2,
			"componentType":5126,
			"count":926,
			"type":"VEC2"
		},
		{
			"bufferView":3,
			"componentType":5123,
			"count":936,
			"type":"SCALAR"
		}
	],
	"bufferViews":[
		{
			"buffer":0,
			"byteLength":11112,
			"byteOffset":0,
			"target":34962
		},
		{
			"buffer":0,
			"byteLength":11112,
			"byteOffset":11112,
			"target":34962
		},
		{
			"buffer":0,
			"byteLength":7408,
			"byteOffset":22224,
			"target":34962
		},
		{
			"buffer":0,
			"byteLength":1872,
			"byteOffset":29632,
			"target":34963
		}
	],
	"buffers":[
		{
			"byteLength":31504,
			"uri":"rock.01.bin"
		}
	]
}
