{
	"asset":{
		"generator":"Khronos glTF Blender I/O v4.0.44",
		"version":"2.0"
	},
	"scene":0,
	"scenes":[
		{
			"name":"Scene",
			"nodes":[
				0
			]
		}
	],
	"nodes":[
		{
			"mesh":0,
			"name":"Tree.02"
		}
	],
	"materials":[
		{
			"doubleSided":true,
			"name":"tree.trunk",
			"pbrMetallicRoughness":{
				"baseColorFactor":[
					0.13015854358673096,
					0.015207840129733086,
					0,
					1
				],
				"metallicFactor":0,
				"roughnessFactor":0.7204724550247192
			}
		},
		{
			"doubleSided":true,
			"name":"Tree.green.base",
			"pbrMetallicRoughness":{
				"baseColorFactor":[
					0.028066866099834442,
					0.2765229046344757,
					0.03298337757587433,
					1
				],
				"metallicFactor":0,
				"roughnessFactor":0.625984251499176
			}
		}
	],
	"meshes":[
		{
			"name":"Cylinder.003",
			"primitives":[
				{
					"attributes":{
						"POSITION":0,
						"NORMAL":1,
						"TEXCOORD_0":2
					},
					"indices":3,
					"material":0
				},
				{
					"attributes":{
						"POSITION":4,
						"NORMAL":5,
						"TEXCOORD_0":6
					},
					"indices":7,
					"material":1
				}
			]
		}
	],
	"accessors":[
		{
			"bufferView":0,
			"componentType":5126,
			"count":1872,
			"max":[
				0.18241606652736664,
				1.230733871459961,
				0.3204546868801117
			],
			"min":[
				-0.32201677560806274,
				-0.19914333522319794,
				-0.27254530787467957
			],
			"type":"VEC3"
		},
		{
			"bufferView":1,
			"componentType":5126,
			"count":1872,
			"type":"VEC3"
		},
		{
			"bufferView":2,
			"componentType":5126,
			"count":1872,
			"type":"VEC2"
		},
		{
			"bufferView":3,
			"componentType":5123,
			"count":1872,
			"type":"SCALAR"
		},
		{
			"bufferView":4,
			"componentType":5126,
			"count":3840,
			"max":[
				0.67212975025177,
				3.271725654602051,
				0.8922010660171509
			],
			"min":[
				-1.0734570026397705,
				0.7600998282432556,
				-0.5944938659667969
			],
			"type":"VEC3"
		},
		{
			"bufferView":5,
			"componentType":5126,
			"count":3840,
			"type":"VEC3"
		},
		{
			"bufferView":6,
			"componentType":5126,
			"count":3840,
			"type":"VEC2"
		},
		{
			"bufferView":7,
			"componentType":5123,
			"count":3840,
			"type":"SCALAR"
		}
	],
	"bufferViews":[
		{
			"buffer":0,
			"byteLength":22464,
			"byteOffset":0,
			"target":34962
		},
		{
			"buffer":0,
			"byteLength":22464,
			"byteOffset":22464,
			"target":34962
		},
		{
			"buffer":0,
			"byteLength":14976,
			"byteOffset":44928,
			"target":34962
		},
		{
			"buffer":0,
			"byteLength":3744,
			"byteOffset":59904,
			"target":34963
		},
		{
			"buffer":0,
			"byteLength":46080,
			"byteOffset":63648,
			"target":34962
		},
		{
			"buffer":0,
			"byteLength":46080,
			"byteOffset":109728,
			"target":34962
		},
		{
			"buffer":0,
			"byteLength":30720,
			"byteOffset":155808,
			"target":34962
		},
		{
			"buffer":0,
			"byteLength":7680,
			"byteOffset":186528,
			"target":34963
		}
	],
	"buffers":[
		{
			"byteLength":194208,
			"uri":"tree.02.bin"
		}
	]
}
