{
	"asset":{
		"generator":"Khronos glTF Blender I/O v4.0.44",
		"version":"2.0"
	},
	"scene":0,
	"scenes":[
		{
			"name":"Scene",
			"nodes":[
				0
			]
		}
	],
	"nodes":[
		{
			"mesh":0,
			"name":"Tree.03"
		}
	],
	"materials":[
		{
			"doubleSided":true,
			"name":"tree.trunk",
			"pbrMetallicRoughness":{
				"baseColorFactor":[
					0.13015854358673096,
					0.015207840129733086,
					0,
					1
				],
				"metallicFactor":0,
				"roughnessFactor":0.7204724550247192
			}
		},
		{
			"doubleSided":true,
			"name":"Tree.green.base",
			"pbrMetallicRoughness":{
				"baseColorFactor":[
					0.028066866099834442,
					0.2765229046344757,
					0.03298337757587433,
					1
				],
				"metallicFactor":0,
				"roughnessFactor":0.625984251499176
			}
		}
	],
	"meshes":[
		{
			"name":"Cylinder.001",
			"primitives":[
				{
					"attributes":{
						"POSITION":0,
						"NORMAL":1,
						"TEXCOORD_0":2
					},
					"indices":3,
					"material":0
				},
				{
					"attributes":{
						"POSITION":4,
						"NORMAL":5,
						"TEXCOORD_0":6
					},
					"indices":7,
					"material":1
				}
			]
		}
	],
	"accessors":[
		{
			"bufferView":0,
			"componentType":5126,
			"count":468,
			"max":[
				0.29012277722358704,
				1.3743491172790527,
				0.09890057891607285
			],
			"min":[
				-0.23915666341781616,
				-0.06284165382385254,
				-0.3661626875400543
			],
			"type":"VEC3"
		},
		{
			"bufferView":1,
			"componentType":5126,
			"count":468,
			"type":"VEC3"
		},
		{
			"bufferView":2,
			"componentType":5126,
			"count":468,
			"type":"VEC2"
		},
		{
			"bufferView":3,
			"componentType":5123,
			"count":468,
			"type":"SCALAR"
		},
		{
			"bufferView":4,
			"componentType":5126,
			"count":3840,
			"max":[
				1.1585181951522827,
				2.9832937717437744,
				1.0816048383712769
			],
			"min":[
				-1.1199185848236084,
				0.770182728767395,
				-1.030669093132019
			],
			"type":"VEC3"
		},
		{
			"bufferView":5,
			"componentType":5126,
			"count":3840,
			"type":"VEC3"
		},
		{
			"bufferView":6,
			"componentType":5126,
			"count":3840,
			"type":"VEC2"
		},
		{
			"bufferView":7,
			"componentType":5123,
			"count":3840,
			"type":"SCALAR"
		}
	],
	"bufferViews":[
		{
			"buffer":0,
			"byteLength":5616,
			"byteOffset":0,
			"target":34962
		},
		{
			"buffer":0,
			"byteLength":5616,
			"byteOffset":5616,
			"target":34962
		},
		{
			"buffer":0,
			"byteLength":3744,
			"byteOffset":11232,
			"target":34962
		},
		{
			"buffer":0,
			"byteLength":936,
			"byteOffset":14976,
			"target":34963
		},
		{
			"buffer":0,
			"byteLength":46080,
			"byteOffset":15912,
			"target":34962
		},
		{
			"buffer":0,
			"byteLength":46080,
			"byteOffset":61992,
			"target":34962
		},
		{
			"buffer":0,
			"byteLength":30720,
			"byteOffset":108072,
			"target":34962
		},
		{
			"buffer":0,
			"byteLength":7680,
			"byteOffset":138792,
			"target":34963
		}
	],
	"buffers":[
		{
			"byteLength":146472,
			"uri":"tree.03.bin"
		}
	]
}
