{
	"asset":{
		"generator":"Khronos glTF Blender I/O v4.0.44",
		"version":"2.0"
	},
	"scene":0,
	"scenes":[
		{
			"name":"Scene",
			"nodes":[
				0
			]
		}
	],
	"nodes":[
		{
			"mesh":0,
			"name":"Treetrunk.01",
			"rotation":[
				0,
				0.7161475419998169,
				0,
				0.6979489326477051
			]
		}
	],
	"materials":[
		{
			"doubleSided":true,
			"name":"tree.trunk",
			"pbrMetallicRoughness":{
				"baseColorFactor":[
					0.13127928972244263,
					0.014852216467261314,
					0,
					1
				],
				"metallicFactor":0,
				"roughnessFactor":0.6811023950576782
			}
		}
	],
	"meshes":[
		{
			"name":"Cylinder.004",
			"primitives":[
				{
					"attributes":{
						"POSITION":0,
						"NORMAL":1,
						"TEXCOORD_0":2
					},
					"indices":3,
					"material":0
				}
			]
		}
	],
	"accessors":[
		{
			"bufferView":0,
			"componentType":5126,
			"count":458,
			"max":[
				0.23935604095458984,
				0.5980063080787659,
				0.2768446207046509
			],
			"min":[
				-0.2521848678588867,
				-0.07814063131809235,
				-0.22739249467849731
			],
			"type":"VEC3"
		},
		{
			"bufferView":1,
			"componentType":5126,
			"count":458,
			"type":"VEC3"
		},
		{
			"bufferView":2,
			"componentType":5126,
			"count":458,
			"type":"VEC2"
		},
		{
			"bufferView":3,
			"componentType":5123,
			"count":468,
			"type":"SCALAR"
		}
	],
	"bufferViews":[
		{
			"buffer":0,
			"byteLength":5496,
			"byteOffset":0,
			"target":34962
		},
		{
			"buffer":0,
			"byteLength":5496,
			"byteOffset":5496,
			"target":34962
		},
		{
			"buffer":0,
			"byteLength":3664,
			"byteOffset":10992,
			"target":34962
		},
		{
			"buffer":0,
			"byteLength":936,
			"byteOffset":14656,
			"target":34963
		}
	],
	"buffers":[
		{
			"byteLength":15592,
			"uri":"treetrunk.01.bin"
		}
	]
}
