{
	"asset":{
		"generator":"Khronos glTF Blender I/O v4.0.44",
		"version":"2.0"
	},
	"scene":0,
	"scenes":[
		{
			"name":"Scene",
			"nodes":[
				0
			]
		}
	],
	"nodes":[
		{
			"mesh":0,
			"name":"Tree.01"
		}
	],
	"materials":[
		{
			"doubleSided":true,
			"name":"tree.trunk",
			"pbrMetallicRoughness":{
				"baseColorFactor":[
					0.13015854358673096,
					0.015207840129733086,
					0,
					1
				],
				"metallicFactor":0,
				"roughnessFactor":0.7204724550247192
			}
		},
		{
			"doubleSided":true,
			"name":"Tree.green.base",
			"pbrMetallicRoughness":{
				"baseColorFactor":[
					0.028066866099834442,
					0.2765229046344757,
					0.03298337757587433,
					1
				],
				"metallicFactor":0,
				"roughnessFactor":0.625984251499176
			}
		}
	],
	"meshes":[
		{
			"name":"Cylinder",
			"primitives":[
				{
					"attributes":{
						"POSITION":0,
						"NORMAL":1,
						"TEXCOORD_0":2
					},
					"indices":3,
					"material":0
				},
				{
					"attributes":{
						"POSITION":4,
						"NORMAL":5,
						"TEXCOORD_0":6
					},
					"indices":7,
					"material":1
				}
			]
		}
	],
	"accessors":[
		{
			"bufferView":0,
			"componentType":5126,
			"count":1832,
			"max":[
				0.22678297758102417,
				1.4364975690841675,
				0.3551938533782959
			],
			"min":[
				-0.4219001531600952,
				-0.08078527450561523,
				-0.18704526126384735
			],
			"type":"VEC3"
		},
		{
			"bufferView":1,
			"componentType":5126,
			"count":1832,
			"type":"VEC3"
		},
		{
			"bufferView":2,
			"componentType":5126,
			"count":1832,
			"type":"VEC2"
		},
		{
			"bufferView":3,
			"componentType":5123,
			"count":1872,
			"type":"SCALAR"
		},
		{
			"bufferView":4,
			"componentType":5126,
			"count":3840,
			"max":[
				1.3821262121200562,
				3.45212984085083,
				1.1869477033615112
			],
			"min":[
				-1.2924443483352661,
				0.8354514837265015,
				-1.1463356018066406
			],
			"type":"VEC3"
		},
		{
			"bufferView":5,
			"componentType":5126,
			"count":3840,
			"type":"VEC3"
		},
		{
			"bufferView":6,
			"componentType":5126,
			"count":3840,
			"type":"VEC2"
		},
		{
			"bufferView":7,
			"componentType":5123,
			"count":3840,
			"type":"SCALAR"
		}
	],
	"bufferViews":[
		{
			"buffer":0,
			"byteLength":21984,
			"byteOffset":0,
			"target":34962
		},
		{
			"buffer":0,
			"byteLength":21984,
			"byteOffset":21984,
			"target":34962
		},
		{
			"buffer":0,
			"byteLength":14656,
			"byteOffset":43968,
			"target":34962
		},
		{
			"buffer":0,
			"byteLength":3744,
			"byteOffset":58624,
			"target":34963
		},
		{
			"buffer":0,
			"byteLength":46080,
			"byteOffset":62368,
			"target":34962
		},
		{
			"buffer":0,
			"byteLength":46080,
			"byteOffset":108448,
			"target":34962
		},
		{
			"buffer":0,
			"byteLength":30720,
			"byteOffset":154528,
			"target":34962
		},
		{
			"buffer":0,
			"byteLength":7680,
			"byteOffset":185248,
			"target":34963
		}
	],
	"buffers":[
		{
			"byteLength":192928,
			"uri":"tree.01.bin"
		}
	]
}
