{
	"asset":{
		"generator":"Khronos glTF Blender I/O v4.2.57",
		"version":"2.0"
	},
	"scene":0,
	"scenes":[
		{
			"name":"Scene",
			"nodes":[
				0,
				1,
				2
			]
		}
	],
	"nodes":[
		{
			"mesh":0,
			"name":"BushTop"
		},
		{
			"mesh":1,
			"name":"BushStem",
			"scale":[
				1.4344271421432495,
				1,
				1.4344271421432495
			]
		},
		{
			"mesh":2,
			"name":"Flowers"
		}
	],
	"materials":[
		{
			"doubleSided":true,
			"name":"BushGreen",
			"pbrMetallicRoughness":{
				"baseColorFactor":[
					0.019870741292834282,
					0.1876659095287323,
					0.01879599131643772,
					1
				],
				"metallicFactor":0,
				"roughnessFactor":0.7901554107666016
			}
		},
		{
			"doubleSided":true,
			"name":"Material.001",
			"pbrMetallicRoughness":{
				"baseColorFactor":[
					0.13487866520881653,
					0.20000743865966797,
					0.017890654504299164,
					1
				],
				"metallicFactor":0
			}
		},
		{
			"doubleSided":true,
			"name":"BushFlowerYellow",
			"pbrMetallicRoughness":{
				"baseColorFactor":[
					0.75589519739151,
					0.8000937700271606,
					0.03500331938266754,
					1
				],
				"metallicFactor":0,
				"roughnessFactor":0.5
			}
		},
		{
			"doubleSided":true,
			"name":"BushFlowerWhite",
			"pbrMetallicRoughness":{
				"baseColorFactor":[
					0.800000011920929,
					0.800000011920929,
					0.800000011920929,
					1
				],
				"metallicFactor":0,
				"roughnessFactor":0.5
			}
		}
	],
	"meshes":[
		{
			"name":"Cube.001",
			"primitives":[
				{
					"attributes":{
						"POSITION":0,
						"NORMAL":1,
						"TEXCOORD_0":2
					},
					"indices":3,
					"material":0
				}
			]
		},
		{
			"name":"Cube.002",
			"primitives":[
				{
					"attributes":{
						"POSITION":4,
						"NORMAL":5,
						"TEXCOORD_0":6
					},
					"indices":7,
					"material":1
				}
			]
		},
		{
			"name":"Cube.003",
			"primitives":[
				{
					"attributes":{
						"POSITION":8,
						"NORMAL":9,
						"TEXCOORD_0":10
					},
					"indices":11,
					"material":2
				},
				{
					"attributes":{
						"POSITION":12,
						"NORMAL":13,
						"TEXCOORD_0":14
					},
					"indices":15,
					"material":3
				}
			]
		}
	],
	"accessors":[
		{
			"bufferView":0,
			"componentType":5126,
			"count":804,
			"max":[
				1.6064891815185547,
				2.8370072841644287,
				1.6064891815185547
			],
			"min":[
				-1.6064894199371338,
				0.7650488615036011,
				-1.6064895391464233
			],
			"type":"VEC3"
		},
		{
			"bufferView":1,
			"componentType":5126,
			"count":804,
			"type":"VEC3"
		},
		{
			"bufferView":2,
			"componentType":5126,
			"count":804,
			"type":"VEC2"
		},
		{
			"bufferView":3,
			"componentType":5123,
			"count":858,
			"type":"SCALAR"
		},
		{
			"bufferView":4,
			"componentType":5126,
			"count":160,
			"max":[
				0.5640564560890198,
				1.3240976333618164,
				0.5047727227210999
			],
			"min":[
				-0.5451144576072693,
				-0.00442957878112793,
				-0.6172846555709839
			],
			"type":"VEC3"
		},
		{
			"bufferView":5,
			"componentType":5126,
			"count":160,
			"type":"VEC3"
		},
		{
			"bufferView":6,
			"componentType":5126,
			"count":160,
			"type":"VEC2"
		},
		{
			"bufferView":7,
			"componentType":5123,
			"count":246,
			"type":"SCALAR"
		},
		{
			"bufferView":8,
			"componentType":5126,
			"count":75,
			"max":[
				1.0729751586914062,
				2.47124981880188,
				1.1088918447494507
			],
			"min":[
				-1.2851014137268066,
				1.235981822013855,
				-1.5422192811965942
			],
			"type":"VEC3"
		},
		{
			"bufferView":9,
			"componentType":5126,
			"count":75,
			"type":"VEC3"
		},
		{
			"bufferView":10,
			"componentType":5126,
			"count":75,
			"type":"VEC2"
		},
		{
			"bufferView":11,
			"componentType":5123,
			"count":117,
			"type":"SCALAR"
		},
		{
			"bufferView":12,
			"componentType":5126,
			"count":438,
			"max":[
				1.1922378540039062,
				2.584554433822632,
				1.2192004919052124
			],
			"min":[
				-1.3926537036895752,
				1.0890663862228394,
				-1.5588481426239014
			],
			"type":"VEC3"
		},
		{
			"bufferView":13,
			"componentType":5126,
			"count":438,
			"type":"VEC3"
		},
		{
			"bufferView":14,
			"componentType":5126,
			"count":438,
			"type":"VEC2"
		},
		{
			"bufferView":15,
			"componentType":5123,
			"count":675,
			"type":"SCALAR"
		}
	],
	"bufferViews":[
		{
			"buffer":0,
			"byteLength":9648,
			"byteOffset":0,
			"target":34962
		},
		{
			"buffer":0,
			"byteLength":9648,
			"byteOffset":9648,
			"target":34962
		},
		{
			"buffer":0,
			"byteLength":6432,
			"byteOffset":19296,
			"target":34962
		},
		{
			"buffer":0,
			"byteLength":1716,
			"byteOffset":25728,
			"target":34963
		},
		{
			"buffer":0,
			"byteLength":1920,
			"byteOffset":27444,
			"target":34962
		},
		{
			"buffer":0,
			"byteLength":1920,
			"byteOffset":29364,
			"target":34962
		},
		{
			"buffer":0,
			"byteLength":1280,
			"byteOffset":31284,
			"target":34962
		},
		{
			"buffer":0,
			"byteLength":492,
			"byteOffset":32564,
			"target":34963
		},
		{
			"buffer":0,
			"byteLength":900,
			"byteOffset":33056,
			"target":34962
		},
		{
			"buffer":0,
			"byteLength":900,
			"byteOffset":33956,
			"target":34962
		},
		{
			"buffer":0,
			"byteLength":600,
			"byteOffset":34856,
			"target":34962
		},
		{
			"buffer":0,
			"byteLength":234,
			"byteOffset":35456,
			"target":34963
		},
		{
			"buffer":0,
			"byteLength":5256,
			"byteOffset":35692,
			"target":34962
		},
		{
			"buffer":0,
			"byteLength":5256,
			"byteOffset":40948,
			"target":34962
		},
		{
			"buffer":0,
			"byteLength":3504,
			"byteOffset":46204,
			"target":34962
		},
		{
			"buffer":0,
			"byteLength":1350,
			"byteOffset":49708,
			"target":34963
		}
	],
	"buffers":[
		{
			"byteLength":51060,
			"uri":"Bush.bin"
		}
	]
}
