{
	"asset":{
		"generator":"Khronos glTF Blender I/O v4.2.57",
		"version":"2.0"
	},
	"scene":0,
	"scenes":[
		{
			"name":"Scene",
			"nodes":[
				0
			]
		}
	],
	"nodes":[
		{
			"mesh":0,
			"name":"Pine"
		}
	],
	"materials":[
		{
			"doubleSided":true,
			"name":"PineLeaf",
			"pbrMetallicRoughness":{
				"baseColorFactor":[
					0.09023958444595337,
					0.2428572177886963,
					0.02081633172929287,
					1
				],
				"metallicFactor":0,
				"roughnessFactor":0.924870491027832
			}
		},
		{
			"doubleSided":true,
			"name":"PineBark",
			"pbrMetallicRoughness":{
				"baseColorFactor":[
					0.11428576707839966,
					0.09396599978208542,
					0.02232269197702408,
					1
				],
				"metallicFactor":0,
				"roughnessFactor":0.8005181550979614
			}
		}
	],
	"meshes":[
		{
			"name":"Circle",
			"primitives":[
				{
					"attributes":{
						"POSITION":0,
						"NORMAL":1,
						"TEXCOORD_0":2
					},
					"indices":3,
					"material":0
				},
				{
					"attributes":{
						"POSITION":4,
						"NORMAL":5,
						"TEXCOORD_0":6
					},
					"indices":7,
					"material":1
				}
			]
		}
	],
	"accessors":[
		{
			"bufferView":0,
			"componentType":5126,
			"count":3200,
			"max":[
				0.951469898223877,
				3.724501609802246,
				0.9534717202186584
			],
			"min":[
				-0.9541620016098022,
				0.7390392422676086,
				-0.9533137679100037
			],
			"type":"VEC3"
		},
		{
			"bufferView":1,
			"componentType":5126,
			"count":3200,
			"type":"VEC3"
		},
		{
			"bufferView":2,
			"componentType":5126,
			"count":3200,
			"type":"VEC2"
		},
		{
			"bufferView":3,
			"componentType":5123,
			"count":4800,
			"type":"SCALAR"
		},
		{
			"bufferView":4,
			"componentType":5126,
			"count":176,
			"max":[
				0.30186545848846436,
				1.212218999862671,
				0.32292020320892334
			],
			"min":[
				-0.3044258952140808,
				0,
				-0.3123760223388672
			],
			"type":"VEC3"
		},
		{
			"bufferView":5,
			"componentType":5126,
			"count":176,
			"type":"VEC3"
		},
		{
			"bufferView":6,
			"componentType":5126,
			"count":176,
			"type":"VEC2"
		},
		{
			"bufferView":7,
			"componentType":5123,
			"count":276,
			"type":"SCALAR"
		}
	],
	"bufferViews":[
		{
			"buffer":0,
			"byteLength":38400,
			"byteOffset":0,
			"target":34962
		},
		{
			"buffer":0,
			"byteLength":38400,
			"byteOffset":38400,
			"target":34962
		},
		{
			"buffer":0,
			"byteLength":25600,
			"byteOffset":76800,
			"target":34962
		},
		{
			"buffer":0,
			"byteLength":9600,
			"byteOffset":102400,
			"target":34963
		},
		{
			"buffer":0,
			"byteLength":2112,
			"byteOffset":112000,
			"target":34962
		},
		{
			"buffer":0,
			"byteLength":2112,
			"byteOffset":114112,
			"target":34962
		},
		{
			"buffer":0,
			"byteLength":1408,
			"byteOffset":116224,
			"target":34962
		},
		{
			"buffer":0,
			"byteLength":552,
			"byteOffset":117632,
			"target":34963
		}
	],
	"buffers":[
		{
			"byteLength":118184,
			"uri":"Tree.bin"
		}
	]
}
